<svg xmlns="http://www.w3.org/2000/svg" xmlns:xlink="http://www.w3.org/1999/xlink" width="254.6" height="33.276" viewBox="0 0 254.6 33.276">
  <defs>
    <clipPath id="clip-path">
      <rect id="Rectangle_126" data-name="Rectangle 126" width="242.605" height="33.276" fill="#fff"/>
    </clipPath>
  </defs>
  <g id="Team_Logo_Community" transform="translate(-68 -50)">
    <text id="_" data-name="®" transform="translate(312.6 68.009)" fill="#fff" font-size="11" font-family="NewHero-Regular, New Hero" letter-spacing="-0.009em"><tspan x="0" y="0">®</tspan></text>
    <g id="Group_141" data-name="Group 141" transform="translate(68 50)">
      <g id="Group_140" data-name="Group 140" transform="translate(0 0)" clip-path="url(#clip-path)">
        <path id="Path_154" data-name="Path 154" d="M14.193,27.908A13.659,13.659,0,0,1,.139,14.655q-.011-.331,0-.663A13.7,13.7,0,0,1,13.533,0h.66A16.225,16.225,0,0,1,21.7,1.849V9.4a10.48,10.48,0,0,0-6.512-2.243,6.861,6.861,0,1,0-.4,13.711q.2,0,.4-.009A10.6,10.6,0,0,0,21.7,18.4v7.651A16.225,16.225,0,0,1,14.193,27.9" transform="translate(1.437 3.005)" fill="#fff"/>
        <path id="Path_155" data-name="Path 155" d="M46.141,13.969A13.671,13.671,0,0,1,60.27.013,13.624,13.624,0,0,1,74.4,13.969a13.653,13.653,0,0,1-14.13,13.988A13.671,13.671,0,0,1,46.141,13.969m20.431,0a6.326,6.326,0,1,0-12.6,0,6.329,6.329,0,1,0,12.6,0" transform="translate(-21.22 2.996)" fill="#fff"/>
        <path id="Path_156" data-name="Path 156" d="M7.3,87.611H0l3.595-26.59h9.077L16.907,75.79h.069L21.1,61.021H29.9l3.631,26.59H26.165l-1.5-16.086H24.52L19.961,87.611H13.447L9.033,71.526H8.892Z" transform="translate(54.961 -58.016)" fill="#fff"/>
        <path id="Path_157" data-name="Path 157" d="M76.018,87.611h-7.3l3.595-26.59h9.075L85.628,75.79H85.7l4.127-14.769h8.791l3.631,26.59H94.888l-1.5-16.086h-.143L88.682,87.611H82.17L77.756,71.526h-.143Z" transform="translate(21.119 -58.016)" fill="#fff"/>
        <path id="Path_158" data-name="Path 158" d="M2.1,136.474V120.7H9.864v15.694c0,2.953,1.46,4.52,3.951,4.52,2.563,0,4.056-1.565,4.056-4.556V120.7h7.8v15.774c0,6.691-4.486,11.5-11.852,11.5-7.331,0-11.709-4.807-11.709-11.5" transform="translate(123.042 -117.697)" fill="#fff"/>
        <path id="Path_159" data-name="Path 159" d="M80.4,147.29H73l-9.573-14.272h-.035V147.29H56.032V120.7h7.4l9.573,14.021h.036V120.7h7.361Z" transform="translate(96.492 -117.697)" fill="#fff"/>
        <rect id="Rectangle_125" data-name="Rectangle 125" width="7.758" height="26.584" transform="translate(181.026 3.009)" fill="#fff"/>
        <path id="Path_160" data-name="Path 160" d="M139.651,127.716H132.32V120.7H154.7v7.01h-7.3V147.29h-7.756Z" transform="translate(58.916 -117.695)" fill="#fff"/>
        <path id="Path_161" data-name="Path 161" d="M186.15,137.183,176.22,120.7H184.9l5.3,9.615h.15l5.232-9.615h8.222l-9.894,16.441V147.29H186.15Z" transform="translate(37.301 -117.695)" fill="#fff"/>
      </g>
    </g>
  </g>
</svg>
