<svg xmlns="http://www.w3.org/2000/svg" xmlns:xlink="http://www.w3.org/1999/xlink" width="90.013" height="86.265" viewBox="0 0 90.013 86.265">
  <defs>
    <clipPath id="clip-path">
      <rect id="Rectangle_761" data-name="Rectangle 761" width="90.012" height="86.265" fill="none"/>
    </clipPath>
  </defs>
  <g id="Team_Logo_59" transform="translate(0 0)">
    <g id="Group_2145" data-name="Group 2145" transform="translate(0 0)" clip-path="url(#clip-path)">
      <path id="Path_658" data-name="Path 658" d="M3.789,46.514,17.808,0H85.762L80.815,16.659H37.107l-6.434,16.99s6.27-6.268,21.113-6.268S84.609,34.638,82.466,54.6C81.641,76.7,58.548,84.285,53.931,85.44a40.55,40.55,0,0,0,11.874-28.7c0-18.144-18.8-19.3-21.276-19.462s-14.845-.333-24.576,11.543Z" transform="translate(4.251 -0.001)" fill="#fff"/>
      <path id="Path_659" data-name="Path 659" d="M21.069,27.051l-18.142.991S-.7,33.321.121,39.256,4.9,52.783,19.914,55.919a10.311,10.311,0,0,1-1.483-9.075L32.285,45.69s-.658,7.257,6.765,7.257,9.4-2.638,11.711-6.758A20.164,20.164,0,0,0,52.9,36.947,23.9,23.9,0,0,1,34.43,41.567C23.379,39.75,20.74,34.308,21.069,27.051" transform="translate(0 30.347)" fill="#fff"/>
      <path id="Path_660" data-name="Path 660" d="M35.329,25.642c2.478,4.195.416,10.247-4.172,12.954s-10.832,1.8-13.313-2.4-.134-9.334,4.454-12.042,10.55-2.714,13.03,1.483" transform="translate(18.893 24.994)" fill="#fff"/>
    </g>
  </g>
</svg>
