<svg id="Team_Logo_Sphere" xmlns="http://www.w3.org/2000/svg" xmlns:xlink="http://www.w3.org/1999/xlink" width="248.024" height="136.405" viewBox="0 0 248.024 136.405">
  <defs>
    <clipPath id="clip-path">
      <rect id="Rectangle_760" data-name="Rectangle 760" width="248.024" height="136.404" fill="none"/>
    </clipPath>
  </defs>
  <g id="Group_2144" data-name="Group 2144" clip-path="url(#clip-path)">
    <path id="Path_634" data-name="Path 634" d="M17.874,171.783a9.891,9.891,0,0,0-2.6-1.136,24.21,24.21,0,0,0-3.359-.7q-1.979-.292-3.31-.584A12.794,12.794,0,0,1,6.5,168.75a2.569,2.569,0,0,1-1.1-.763,1.664,1.664,0,0,1-.325-1.022,2.15,2.15,0,0,1,1.346-2.11,8.256,8.256,0,0,1,3.424-.617,7.4,7.4,0,0,1,3.715.844,3.2,3.2,0,0,1,1.606,2.758h4.218A6.22,6.22,0,0,0,17,162.535q-2.449-1.93-6.992-1.931a14.557,14.557,0,0,0-5.095.78,6.771,6.771,0,0,0-3.131,2.174A5.232,5.232,0,0,0,.725,166.8a4.666,4.666,0,0,0,.7,2.58,5.884,5.884,0,0,0,1.915,1.834,11.712,11.712,0,0,0,2.807,1.217,24.181,24.181,0,0,0,3.375.73q2.272.324,3.667.633a5.693,5.693,0,0,1,2.045.778,1.564,1.564,0,0,1,.649,1.347,2.414,2.414,0,0,1-.52,1.557,3.3,3.3,0,0,1-1.59,1.005,8.759,8.759,0,0,1-2.726.357,10,10,0,0,1-3.277-.5,6.045,6.045,0,0,1-2.353-1.4,3.337,3.337,0,0,1-1.022-2H.011a4.555,4.555,0,0,0,.276,1.817,6.607,6.607,0,0,0,1.151,2.012,8.961,8.961,0,0,0,2.109,1.85,11.236,11.236,0,0,0,3.084,1.346,15.258,15.258,0,0,0,4.121.5,15.345,15.345,0,0,0,5.338-.779,6.309,6.309,0,0,0,3.05-2.19,5.648,5.648,0,0,0,.99-3.326,5.426,5.426,0,0,0-.584-2.629,4.849,4.849,0,0,0-1.672-1.768" transform="translate(0 -65.963)" fill="#fff"/>
    <path id="Path_635" data-name="Path 635" d="M173.9,182.315V161.321h-4.316v8.664H154.17v-8.664h-4.316v20.995h4.316v-8.729h15.413v8.729Z" transform="translate(-61.548 -66.258)" fill="#fff"/>
    <path id="Path_636" data-name="Path 636" d="M94.332,171.77a7.272,7.272,0,0,0,.649-3.213,7.567,7.567,0,0,0-.649-3.277,6.021,6.021,0,0,0-1.8-2.24,7.807,7.807,0,0,0-2.693-1.3,12.468,12.468,0,0,0-3.294-.421H73.532v20.995h4.316V175.5h8.7a13.976,13.976,0,0,0,3.294-.374,7.636,7.636,0,0,0,2.693-1.2,5.664,5.664,0,0,0,1.8-2.158m-4.673-.633a3.87,3.87,0,0,1-2.725.925H77.848V165.02h9.085a3.915,3.915,0,0,1,2.725.909,3.872,3.872,0,0,1,0,5.208" transform="translate(-30.201 -66.258)" fill="#fff"/>
    <path id="Path_637" data-name="Path 637" d="M327.9,171.9a4.448,4.448,0,0,0,1.444-1.688,5.608,5.608,0,0,0,.52-2.531,6.093,6.093,0,0,0-1.006-3.618,5.817,5.817,0,0,0-2.807-2.077,12.225,12.225,0,0,0-4.235-.665H307.567v21h4.316v-7.756h8.144a14.359,14.359,0,0,1,3.131.26,2.323,2.323,0,0,1,1.509.925,3.477,3.477,0,0,1,.423,1.866v4.706h4.316v-5a4.1,4.1,0,0,0-.731-2.644,3.844,3.844,0,0,0-2.189-1.233,13.815,13.815,0,0,0-1.91-.282,11.879,11.879,0,0,0,1.2-.27,6.98,6.98,0,0,0,2.125-.989m-3.309-1.59a3.973,3.973,0,0,1-2.774.876h-9.93V165.02h9.93a4.442,4.442,0,0,1,2.774.746,2.593,2.593,0,0,1,.958,2.174,3.056,3.056,0,0,1-.958,2.37" transform="translate(-126.324 -66.258)" fill="#fff"/>
    <path id="Path_638" data-name="Path 638" d="M236.495,173.554h13.24v-3.407h-13.24v-5.225h16.16v-3.6H232.179v20.995h20.509v-3.6H236.495Z" transform="translate(-95.361 -66.258)" fill="#fff"/>
    <path id="Path_639" data-name="Path 639" d="M390.407,178.714v-5.16h13.239v-3.407H390.407v-5.224h16.16v-3.6H386.092v20.995H406.6v-3.6Z" transform="translate(-158.576 -66.258)" fill="#fff"/>
    <path id="Path_640" data-name="Path 640" d="M237.253,37.758a33.637,33.637,0,0,0-6.034-6.969A34.459,34.459,0,0,0,205,22.419h0a1.726,1.726,0,0,0,.39,3.431h0a31.038,31.038,0,0,1,22.074,6.366,30.617,30.617,0,0,1,10.929,15.877c.092-.393.175-.778.247-1.159a31.7,31.7,0,0,0,.489-4.421c.016-.478.023-.968.021-1.474a34.683,34.683,0,0,0-1.894-3.271v0Z" transform="translate(-83.573 -9.139)" fill="#fff"/>
    <path id="Path_641" data-name="Path 641" d="M200.763,11a11.222,11.222,0,0,0-1.638.2,8.7,8.7,0,0,0-4.946,3.018,8.337,8.337,0,0,0,1.355,11.893,8.7,8.7,0,0,0,5.024,1.823c.748.028,1.486-.075,2.233-.107,12.635-.512,24.551,9.535,26.272,21.961a23.347,23.347,0,0,1,.105,4.527,32.1,32.1,0,0,0,2.986-5.6c-.087-.49-.258-1.481-.288-1.609a29.344,29.344,0,0,0-11.112-16.958,27.394,27.394,0,0,0-18.021-5.784,20.966,20.966,0,0,1-2.259.094,5.128,5.128,0,0,1-2.731-1.064,4.927,4.927,0,0,1-.8-7.03,5.135,5.135,0,0,1,1.926-1.462,7.116,7.116,0,0,1,2.655-.492A37.9,37.9,0,0,1,227.139,22.3a37.132,37.132,0,0,1,6.428,6.4A31.9,31.9,0,0,0,232,23.983c-.038-.091-.077-.182-.116-.272l-.072-.166a31.845,31.845,0,0,0-1.735-3.361c-.244-.2-.492-.4-.742-.593A41.465,41.465,0,0,0,200.763,11" transform="translate(-78.976 -4.472)" fill="#fff"/>
    <path id="Path_642" data-name="Path 642" d="M209.995,51a14.929,14.929,0,0,0-5.712-10.12,15.521,15.521,0,0,0-6.319-2.932c-2.883-.609-5.3-.041-8.077-.339a19.589,19.589,0,0,1-16.535-13.8A20.847,20.847,0,0,1,175.223,9.26a32.206,32.206,0,0,0-5.074,4.238,22.793,22.793,0,0,0-.172,10.006c1.444,7.03,6.433,12.87,13.6,15.969a20.686,20.686,0,0,0,4.722,1.4c3.012.513,5.863-.138,8.707.414a11.987,11.987,0,0,1,5.074,2.3A11.5,11.5,0,0,1,203.95,60a11.961,11.961,0,0,1-4.652,3.482,15.97,15.97,0,0,1-5.992,1.039,44.788,44.788,0,0,1-21.028-4.362,31.964,31.964,0,0,0,24.407,7.444c.671-.076,1.333-.176,1.988-.291A15.195,15.195,0,0,0,209.995,51" transform="translate(-69.619 -3.803)" fill="#fff"/>
    <path id="Path_643" data-name="Path 643" d="M156.97,52.846l.006.009a33.6,33.6,0,0,0,6.034,6.968,34.446,34.446,0,0,0,26.22,8.37h0a1.726,1.726,0,0,0-.39-3.43h0A31.039,31.039,0,0,1,166.762,58.4a30.617,30.617,0,0,1-10.928-15.878c-.092.394-.175.778-.249,1.159A32.08,32.08,0,0,0,155.1,48.1c-.015.478-.022.968-.02,1.474a34.581,34.581,0,0,0,1.893,3.27Z" transform="translate(-63.693 -17.463)" fill="#fff"/>
    <path id="Path_644" data-name="Path 644" d="M186.521,26.934a15.513,15.513,0,0,0,6.319,2.932c2.883.609,5.3.041,8.077.339A19.585,19.585,0,0,1,217.451,44a20.834,20.834,0,0,1-1.871,14.552,32.1,32.1,0,0,0,5.073-4.236,22.785,22.785,0,0,0,.173-10.006c-1.444-7.03-6.433-12.87-13.6-15.969a20.628,20.628,0,0,0-4.722-1.4c-3.013-.513-5.863.138-8.707-.414a12,12,0,0,1-5.074-2.3,11.5,11.5,0,0,1-1.87-16.414,11.975,11.975,0,0,1,4.652-3.483A15.991,15.991,0,0,1,197.5,3.291a44.8,44.8,0,0,1,21.029,4.361A31.967,31.967,0,0,0,194.117.209c-.67.076-1.332.176-1.986.291A14.809,14.809,0,0,0,184.1,5.668a14.906,14.906,0,0,0,2.423,21.266" transform="translate(-74.222 0)" fill="#fff"/>
    <path id="Path_645" data-name="Path 645" d="M169.565,48.206a27.4,27.4,0,0,0,18.02,5.783,21.3,21.3,0,0,1,2.26-.094,5.141,5.141,0,0,1,2.731,1.062,4.928,4.928,0,0,1,.8,7.031,5.138,5.138,0,0,1-1.925,1.462,7.115,7.115,0,0,1-2.655.491,37.9,37.9,0,0,1-25.617-7.886,37.123,37.123,0,0,1-6.428-6.4,31.824,31.824,0,0,0,1.562,4.718c.038.09.077.181.116.272l.072.166a31.731,31.731,0,0,0,1.734,3.361c.245.2.493.4.742.593a41.479,41.479,0,0,0,28.577,8.588,11.177,11.177,0,0,0,1.639-.2,8.7,8.7,0,0,0,4.945-3.017,8.337,8.337,0,0,0-1.354-11.894,8.7,8.7,0,0,0-5.024-1.823c-.748-.027-1.487.077-2.233.107-12.635.513-24.551-9.533-26.272-21.96a23.363,23.363,0,0,1-.106-4.528,32.165,32.165,0,0,0-2.986,5.6c.088.489.259,1.48.289,1.609a29.344,29.344,0,0,0,11.112,16.959" transform="translate(-64.381 -9.874)" fill="#fff"/>
    <path id="Path_646" data-name="Path 646" d="M81.01,219.533h4.625v-.96H81.01v-3.51h5.262V214.1H79.994v10.04h6.461v-.96H81.01Z" transform="translate(-32.855 -87.937)" fill="#fff"/>
    <path id="Path_647" data-name="Path 647" d="M54.386,214.1H51.12v10.04h3.266c2.6,0,4.1-1.413,4.1-3.732v-2.575c0-2.321-1.5-3.732-4.1-3.732m3.07,6.307c0,1.768-1.09,2.773-3.07,2.773h-2.25v-8.12h2.25c1.981,0,3.07,1.005,3.07,2.773Z" transform="translate(-20.996 -87.937)" fill="#fff"/>
    <path id="Path_648" data-name="Path 648" d="M277.989,219.533h4.625v-.96h-4.625v-3.51h5.262V214.1h-6.278v10.04h6.462v-.96h-5.445Z" transform="translate(-113.759 -87.937)" fill="#fff"/>
    <path id="Path_649" data-name="Path 649" d="M332.153,215.062h3.139v9.081h1.031v-9.081h3.14V214.1h-7.311Z" transform="translate(-136.422 -87.937)" fill="#fff"/>
    <path id="Path_650" data-name="Path 650" d="M310.489,222.22l-5.631-8.117h-.932v10.04h.988v-8.117l5.645,8.117h.932V214.1h-1Z" transform="translate(-124.829 -87.937)" fill="#fff"/>
    <path id="Path_651" data-name="Path 651" d="M109.417,222.729l-3.225-8.626h-1.117l3.833,10.04h.975l3.847-10.04h-1.1Z" transform="translate(-43.157 -87.937)" fill="#fff"/>
    <path id="Path_652" data-name="Path 652" d="M249.125,220.537l-3.651-6.434h-.9v10.04h.96V216.11l3.226,5.685h.707l3.24-5.7v8.047h.988V214.1h-.959Z" transform="translate(-100.451 -87.937)" fill="#fff"/>
    <path id="Path_653" data-name="Path 653" d="M363.108,218.462c-1.2-.114-2.929-.3-2.929-1.853,0-1.2.919-1.868,2.6-1.868a2.685,2.685,0,0,1,2.759,1.641l.113.241c-.085-.184-.029-.17.056-.17a3.176,3.176,0,0,0,.9-.269,2.44,2.44,0,0,0-.141-.268,3.6,3.6,0,0,0-3.691-2.149c-2.306,0-3.649,1.13-3.649,2.9,0,2.263,1.951,2.589,3.733,2.787,1.189.127,2.759.282,2.759,1.81,0,1.316-.948,1.981-2.816,1.981a2.872,2.872,0,0,1-2.857-1.839l-.113-.255-.975.34.127.325c.635,1.627,1.809,2.389,3.818,2.389,2.49,0,3.847-1.1,3.847-2.969,0-2.221-1.781-2.561-3.549-2.773" transform="translate(-147.394 -87.799)" fill="#fff"/>
    <path id="Path_654" data-name="Path 654" d="M135.974,219.533H140.6v-.96h-4.625v-3.51h5.262V214.1h-6.278v10.04h6.462v-.96h-5.446Z" transform="translate(-55.43 -87.937)" fill="#fff"/>
    <path id="Path_655" data-name="Path 655" d="M220.5,214.1h-4.058v10.04h1.017v-3.777H220.5a3.132,3.132,0,1,0,0-6.263m-.085,5.317h-2.956v-4.358h2.956a2.179,2.179,0,1,1,0,4.358" transform="translate(-88.897 -87.937)" fill="#fff"/>
    <path id="Path_656" data-name="Path 656" d="M162.927,214.1h-1.016v10.04h6.08v-.96h-5.064Z" transform="translate(-66.5 -87.937)" fill="#fff"/>
    <path id="Path_657" data-name="Path 657" d="M190.712,213.767c-2.5,0-3.889,1.328-3.889,3.549v3.338c0,2.221,1.385,3.549,3.889,3.549s3.874-1.328,3.874-3.549v-3.338c0-2.221-1.384-3.549-3.874-3.549m2.857,6.887c0,1.655-1,2.6-2.857,2.6s-2.872-.948-2.872-2.6v-3.338c0-1.655,1.018-2.6,2.872-2.6s2.857.948,2.857,2.6Z" transform="translate(-76.732 -87.799)" fill="#fff"/>
  </g>
</svg>
