<svg id="Team_Logo_KNYMH" xmlns="http://www.w3.org/2000/svg" xmlns:xlink="http://www.w3.org/1999/xlink" width="193.404" height="67.547" viewBox="0 0 193.404 67.547">
  <defs>
    <clipPath id="clip-path">
      <rect id="Rectangle_764" data-name="Rectangle 764" width="193.404" height="67.547" fill="none"/>
    </clipPath>
  </defs>
  <rect id="Rectangle_762" data-name="Rectangle 762" width="193.278" height="0.898" transform="translate(0.062 66.587)" fill="#fff"/>
  <g id="Group_2148" data-name="Group 2148" transform="translate(0 0)">
    <g id="Group_2147" data-name="Group 2147" clip-path="url(#clip-path)">
      <rect id="Rectangle_763" data-name="Rectangle 763" width="193.279" height="0.899" transform="translate(0.062 66.586)" fill="none" stroke="#fff" stroke-miterlimit="10" stroke-width="0.1"/>
    </g>
  </g>
  <rect id="Rectangle_765" data-name="Rectangle 765" width="193.278" height="0.899" transform="translate(0.062 48.607)" fill="#fff"/>
  <g id="Group_2150" data-name="Group 2150" transform="translate(0 0)">
    <g id="Group_2149" data-name="Group 2149" clip-path="url(#clip-path)">
      <rect id="Rectangle_766" data-name="Rectangle 766" width="193.279" height="0.899" transform="translate(0.062 48.607)" fill="none" stroke="#fff" stroke-miterlimit="10" stroke-width="0.1"/>
    </g>
  </g>
  <path id="Path_661" data-name="Path 661" d="M10.824,19.353l14.7,19.26h4.863L13.422,16.7Z" transform="translate(2.69 4.151)" fill="#fff"/>
  <path id="Path_662" data-name="Path 662" d="M10.824,19.353l14.7,19.26h4.863L13.422,16.7Z" transform="translate(2.69 4.151)" fill="none" stroke="#fff" stroke-miterlimit="10" stroke-width="0.1"/>
  <path id="Path_663" data-name="Path 663" d="M24.419.05,6.3,18.706v5.03L29.487.05Z" transform="translate(1.566 0.012)" fill="#fff"/>
  <path id="Path_664" data-name="Path 664" d="M24.418.05,6.3,18.7v5.032L29.486.05Z" transform="translate(1.566 0.012)" fill="none" stroke="#fff" stroke-miterlimit="10" stroke-width="0.1"/>
  <rect id="Rectangle_768" data-name="Rectangle 768" width="3.938" height="42.702" transform="translate(0.062 0.061)" fill="#fff"/>
  <g id="Group_2152" data-name="Group 2152" transform="translate(0 0)">
    <g id="Group_2151" data-name="Group 2151" clip-path="url(#clip-path)">
      <rect id="Rectangle_769" data-name="Rectangle 769" width="3.938" height="42.701" transform="translate(0.062 0.062)" fill="none" stroke="#fff" stroke-miterlimit="10" stroke-width="0.1"/>
    </g>
  </g>
  <rect id="Rectangle_771" data-name="Rectangle 771" width="3.802" height="42.702" transform="translate(66.323 0.061)" fill="#fff"/>
  <rect id="Rectangle_772" data-name="Rectangle 772" width="3.801" height="42.701" transform="translate(66.323 0.062)" fill="none" stroke="#fff" stroke-miterlimit="10" stroke-width="0.1"/>
  <rect id="Rectangle_773" data-name="Rectangle 773" width="3.869" height="42.702" transform="translate(37.901 0.061)" fill="#fff"/>
  <rect id="Rectangle_774" data-name="Rectangle 774" width="3.869" height="42.701" transform="translate(37.901 0.062)" fill="none" stroke="#fff" stroke-miterlimit="10" stroke-width="0.1"/>
  <path id="Path_665" data-name="Path 665" d="M53.371,29.78,36.551,4.214v6.763L53.371,36.653Z" transform="translate(9.085 1.047)" fill="#fff"/>
  <path id="Path_666" data-name="Path 666" d="M53.371,29.78,36.551,4.214v6.763L53.371,36.653Z" transform="translate(9.085 1.047)" fill="none" stroke="#fff" stroke-miterlimit="10" stroke-width="0.1"/>
  <path id="Path_667" data-name="Path 667" d="M59.619.05,74.653,23.985V42.752h3.937V23.463L64.106.05Z" transform="translate(14.819 0.012)" fill="#fff"/>
  <path id="Path_668" data-name="Path 668" d="M74.652,42.751h3.937V23.463L64.106.05H59.618L74.652,23.985Z" transform="translate(14.819 0.012)" fill="none" stroke="#fff" stroke-miterlimit="10" stroke-width="0.1"/>
  <path id="Path_669" data-name="Path 669" d="M85.3.05,75.044,16.584l2.163,3.5L89.788.05Z" transform="translate(18.653 0.012)" fill="#fff"/>
  <path id="Path_670" data-name="Path 670" d="M89.788.05H85.3L75.044,16.584l2.164,3.5Z" transform="translate(18.653 0.012)" fill="none" stroke="#fff" stroke-miterlimit="10" stroke-width="0.1"/>
  <path id="Path_671" data-name="Path 671" d="M110.087,41.583l9.832-26.718V4.749L108.273,36.48,96.421,4.818V14.71l10.037,26.873Z" transform="translate(23.967 1.18)" fill="#fff"/>
  <path id="Path_672" data-name="Path 672" d="M110.087,41.583l9.832-26.718V4.749L108.273,36.48,96.421,4.818V14.71l10.037,26.873Z" transform="translate(23.967 1.18)" fill="none" stroke="#fff" stroke-miterlimit="10" stroke-width="0.1"/>
  <rect id="Rectangle_775" data-name="Rectangle 775" width="3.802" height="42.702" transform="translate(147.752 0.061)" fill="#fff"/>
  <rect id="Rectangle_776" data-name="Rectangle 776" width="3.802" height="42.701" transform="translate(147.752 0.062)" fill="none" stroke="#fff" stroke-miterlimit="10" stroke-width="0.1"/>
  <rect id="Rectangle_777" data-name="Rectangle 777" width="3.871" height="42.702" transform="translate(112.653 0.061)" fill="#fff"/>
  <rect id="Rectangle_778" data-name="Rectangle 778" width="3.871" height="42.701" transform="translate(112.652 0.062)" fill="none" stroke="#fff" stroke-miterlimit="10" stroke-width="0.1"/>
  <rect id="Rectangle_779" data-name="Rectangle 779" width="3.973" height="42.702" transform="translate(189.369 0.061)" fill="#fff"/>
  <g id="Group_2154" data-name="Group 2154" transform="translate(0 0)">
    <g id="Group_2153" data-name="Group 2153" clip-path="url(#clip-path)">
      <rect id="Rectangle_780" data-name="Rectangle 780" width="3.973" height="42.701" transform="translate(189.369 0.062)" fill="none" stroke="#fff" stroke-miterlimit="10" stroke-width="0.1"/>
    </g>
  </g>
  <rect id="Rectangle_782" data-name="Rectangle 782" width="3.904" height="42.702" transform="translate(161.084 0.061)" fill="#fff"/>
  <rect id="Rectangle_783" data-name="Rectangle 783" width="3.904" height="42.701" transform="translate(161.084 0.062)" fill="none" stroke="#fff" stroke-miterlimit="10" stroke-width="0.1"/>
  <rect id="Rectangle_784" data-name="Rectangle 784" width="16.651" height="3.492" transform="translate(168.852 18.589)" fill="#fff"/>
  <rect id="Rectangle_785" data-name="Rectangle 785" width="16.651" height="3.492" transform="translate(168.852 18.589)" fill="none" stroke="#fff" stroke-miterlimit="10" stroke-width="0.1"/>
  <path id="Path_673" data-name="Path 673" d="M5.874,49.17l.642,2.437h.955l-2.337-8.45h-1.2l-2.3,8.45h.955L3.2,49.17ZM4.536,43.886l1.125,4.429H3.411Z" transform="translate(0.405 10.727)" fill="#fff"/>
  <path id="Path_674" data-name="Path 674" d="M5.874,49.17l.642,2.437h.955l-2.337-8.45h-1.2l-2.3,8.45h.955L3.2,49.17ZM4.536,43.886l1.125,4.429H3.411Z" transform="translate(0.405 10.727)" fill="none" stroke="#fff" stroke-miterlimit="10" stroke-width="0.1"/>
  <g id="Group_2156" data-name="Group 2156" transform="translate(0 0)">
    <g id="Group_2155" data-name="Group 2155" clip-path="url(#clip-path)">
      <path id="Path_675" data-name="Path 675" d="M13.924,45.325a2.012,2.012,0,0,0-.637-1.632,2.978,2.978,0,0,0-1.948-.536H8.968v8.45h.923V47.854h1.2a2.122,2.122,0,0,1,1.347.321,1.738,1.738,0,0,1,.452,1.194q.028.318.055.86a3.649,3.649,0,0,0,.225,1.378h1.17c-.238-.2-.387-.764-.444-1.686-.022-.361-.042-.646-.061-.85a2.1,2.1,0,0,0-.428-1.222,1.516,1.516,0,0,0-1.053-.456,2.057,2.057,0,0,0,1.185-.712,2.19,2.19,0,0,0,.385-1.357m-1.43,1.325a2.276,2.276,0,0,1-1.457.382H9.891V43.986h1.327a2.039,2.039,0,0,1,1.328.351,1.406,1.406,0,0,1,.411,1.125,1.451,1.451,0,0,1-.463,1.187" transform="translate(2.229 10.727)" fill="#fff"/>
      <path id="Path_676" data-name="Path 676" d="M13.924,45.325a2.012,2.012,0,0,0-.637-1.632,2.978,2.978,0,0,0-1.948-.536H8.968v8.45h.923V47.854h1.2a2.122,2.122,0,0,1,1.347.321,1.738,1.738,0,0,1,.452,1.194q.028.318.055.86a3.649,3.649,0,0,0,.225,1.378h1.17c-.238-.2-.387-.764-.444-1.686-.022-.361-.042-.646-.061-.85a2.1,2.1,0,0,0-.428-1.222,1.516,1.516,0,0,0-1.053-.456,2.057,2.057,0,0,0,1.185-.712A2.19,2.19,0,0,0,13.924,45.325Zm-1.43,1.325a2.276,2.276,0,0,1-1.457.382H9.891V43.986h1.327a2.039,2.039,0,0,1,1.328.351,1.406,1.406,0,0,1,.411,1.125A1.451,1.451,0,0,1,12.494,46.649Z" transform="translate(2.229 10.727)" fill="none" stroke="#fff" stroke-miterlimit="10" stroke-width="0.1"/>
      <path id="Path_677" data-name="Path 677" d="M18.478,43.829a1.358,1.358,0,0,1,1.109.493,2.085,2.085,0,0,1,.406,1.36h.91v-.1a2.7,2.7,0,0,0-.628-1.912A2.323,2.323,0,0,0,18.489,43a2.16,2.16,0,0,0-2.011,1.05,6.961,6.961,0,0,0-.623,3.4,6.826,6.826,0,0,0,.628,3.327,2.087,2.087,0,0,0,1.935,1.078A2.217,2.217,0,0,0,20.291,51a4.027,4.027,0,0,0,.667-2.455h-.933v.132a3.065,3.065,0,0,1-.386,1.681,1.246,1.246,0,0,1-1.106.589,1.326,1.326,0,0,1-1.284-.8,6.708,6.708,0,0,1-.39-2.7,7.31,7.31,0,0,1,.378-2.779,1.28,1.28,0,0,1,1.24-.837" transform="translate(3.941 10.687)" fill="#fff"/>
      <path id="Path_678" data-name="Path 678" d="M18.478,43.829a1.358,1.358,0,0,1,1.109.493,2.085,2.085,0,0,1,.406,1.36h.91v-.1a2.7,2.7,0,0,0-.628-1.912A2.323,2.323,0,0,0,18.489,43a2.16,2.16,0,0,0-2.011,1.05,6.961,6.961,0,0,0-.623,3.4,6.826,6.826,0,0,0,.628,3.327,2.087,2.087,0,0,0,1.935,1.078A2.217,2.217,0,0,0,20.291,51a4.027,4.027,0,0,0,.667-2.455h-.933v.132a3.065,3.065,0,0,1-.386,1.681,1.246,1.246,0,0,1-1.106.589,1.326,1.326,0,0,1-1.284-.8,6.708,6.708,0,0,1-.39-2.7,7.31,7.31,0,0,1,.378-2.779A1.28,1.28,0,0,1,18.478,43.829Z" transform="translate(3.941 10.687)" fill="none" stroke="#fff" stroke-miterlimit="10" stroke-width="0.1"/>
      <path id="Path_679" data-name="Path 679" d="M23,43.157v8.45h.965V47.492h3.15v4.115h.965v-8.45h-.965v3.485h-3.15V43.157Z" transform="translate(5.718 10.727)" fill="#fff"/>
      <path id="Path_680" data-name="Path 680" d="M23,43.157v8.45h.965V47.492h3.15v4.115h.965v-8.45h-.965v3.485h-3.15V43.157Z" transform="translate(5.718 10.727)" fill="none" stroke="#fff" stroke-miterlimit="10" stroke-width="0.1"/>
      <rect id="Rectangle_786" data-name="Rectangle 786" width="0.965" height="8.45" transform="translate(37.709 53.884)" fill="#fff"/>
      <rect id="Rectangle_787" data-name="Rectangle 787" width="0.965" height="8.45" transform="translate(37.709 53.884)" fill="none" stroke="#fff" stroke-miterlimit="10" stroke-width="0.1"/>
      <path id="Path_681" data-name="Path 681" d="M36.757,51.607V44.025h2.025v-.868H33.636v.868h2.156v7.583Z" transform="translate(8.361 10.727)" fill="#fff"/>
      <path id="Path_682" data-name="Path 682" d="M36.757,51.607V44.025h2.025v-.868H33.636v.868h2.156v7.583Z" transform="translate(8.361 10.727)" fill="none" stroke="#fff" stroke-miterlimit="10" stroke-width="0.1"/>
      <path id="Path_683" data-name="Path 683" d="M44.6,44.035v-.878H40.409v8.449h4.224v-.888H41.341V47.607h3.045v-.855H41.341V44.035Z" transform="translate(10.044 10.727)" fill="#fff"/>
      <path id="Path_684" data-name="Path 684" d="M44.6,44.035v-.878H40.409v8.449h4.224v-.888H41.341V47.607h3.045v-.855H41.341V44.035Z" transform="translate(10.044 10.727)" fill="none" stroke="#fff" stroke-miterlimit="10" stroke-width="0.1"/>
      <path id="Path_685" data-name="Path 685" d="M49.233,43.829a1.358,1.358,0,0,1,1.109.493,2.085,2.085,0,0,1,.406,1.36h.91v-.1a2.7,2.7,0,0,0-.628-1.912A2.323,2.323,0,0,0,49.244,43a2.16,2.16,0,0,0-2.011,1.05,6.961,6.961,0,0,0-.623,3.4,6.826,6.826,0,0,0,.628,3.327,2.087,2.087,0,0,0,1.935,1.078A2.217,2.217,0,0,0,51.046,51a4.027,4.027,0,0,0,.667-2.455H50.78v.132a3.065,3.065,0,0,1-.386,1.681,1.246,1.246,0,0,1-1.106.589,1.326,1.326,0,0,1-1.284-.8,6.708,6.708,0,0,1-.39-2.7,7.31,7.31,0,0,1,.378-2.779,1.28,1.28,0,0,1,1.24-.837" transform="translate(11.586 10.687)" fill="#fff"/>
      <path id="Path_686" data-name="Path 686" d="M49.233,43.829a1.358,1.358,0,0,1,1.109.493,2.085,2.085,0,0,1,.406,1.36h.91v-.1a2.7,2.7,0,0,0-.628-1.912A2.323,2.323,0,0,0,49.244,43a2.16,2.16,0,0,0-2.011,1.05,6.961,6.961,0,0,0-.623,3.4,6.826,6.826,0,0,0,.628,3.327,2.087,2.087,0,0,0,1.935,1.078A2.217,2.217,0,0,0,51.046,51a4.027,4.027,0,0,0,.667-2.455H50.78v.132a3.065,3.065,0,0,1-.386,1.681,1.246,1.246,0,0,1-1.106.589,1.326,1.326,0,0,1-1.284-.8,6.708,6.708,0,0,1-.39-2.7,7.31,7.31,0,0,1,.378-2.779A1.28,1.28,0,0,1,49.233,43.829Z" transform="translate(11.586 10.687)" fill="none" stroke="#fff" stroke-miterlimit="10" stroke-width="0.1"/>
      <path id="Path_687" data-name="Path 687" d="M56.4,51.607V44.025h2.025v-.868H53.283v.868h2.156v7.583Z" transform="translate(13.244 10.727)" fill="#fff"/>
      <path id="Path_688" data-name="Path 688" d="M56.4,51.607V44.025h2.025v-.868H53.283v.868h2.156v7.583Z" transform="translate(13.244 10.727)" fill="none" stroke="#fff" stroke-miterlimit="10" stroke-width="0.1"/>
      <path id="Path_689" data-name="Path 689" d="M60.065,43.157v5.514a8.65,8.65,0,0,0,.09,1.518,1.812,1.812,0,0,0,.3.733,1.982,1.982,0,0,0,.834.649,3.23,3.23,0,0,0,2.345.016,2.2,2.2,0,0,0,.854-.622,2.04,2.04,0,0,0,.406-.783,6.443,6.443,0,0,0,.121-1.512V43.157H64.1v5.685a2.649,2.649,0,0,1-.388,1.6,1.43,1.43,0,0,1-1.214.509,1.329,1.329,0,0,1-1.15-.463,2.946,2.946,0,0,1-.336-1.648V43.157Z" transform="translate(14.93 10.727)" fill="#fff"/>
      <path id="Path_690" data-name="Path 690" d="M60.065,43.157v5.514a8.65,8.65,0,0,0,.09,1.518,1.812,1.812,0,0,0,.3.733,1.982,1.982,0,0,0,.834.649,3.23,3.23,0,0,0,2.345.016,2.2,2.2,0,0,0,.854-.622,2.04,2.04,0,0,0,.406-.783,6.443,6.443,0,0,0,.121-1.512V43.157H64.1v5.685a2.649,2.649,0,0,1-.388,1.6,1.43,1.43,0,0,1-1.214.509,1.329,1.329,0,0,1-1.15-.463,2.946,2.946,0,0,1-.336-1.648V43.157Z" transform="translate(14.93 10.727)" fill="none" stroke="#fff" stroke-miterlimit="10" stroke-width="0.1"/>
      <path id="Path_691" data-name="Path 691" d="M72.121,45.325a2.012,2.012,0,0,0-.637-1.632,2.978,2.978,0,0,0-1.948-.536h-2.37v8.45h.921V47.854h1.2a2.122,2.122,0,0,1,1.347.321,1.738,1.738,0,0,1,.452,1.194q.028.318.055.86a3.614,3.614,0,0,0,.226,1.378h1.169c-.238-.2-.386-.764-.444-1.686-.022-.361-.042-.646-.061-.85a2.1,2.1,0,0,0-.428-1.222,1.516,1.516,0,0,0-1.053-.456,2.057,2.057,0,0,0,1.185-.712,2.19,2.19,0,0,0,.385-1.357m-1.43,1.325a2.276,2.276,0,0,1-1.457.382H68.088V43.986h1.328a2.035,2.035,0,0,1,1.327.351,1.4,1.4,0,0,1,.411,1.125,1.451,1.451,0,0,1-.463,1.187" transform="translate(16.695 10.727)" fill="#fff"/>
      <path id="Path_692" data-name="Path 692" d="M72.121,45.325a2.012,2.012,0,0,0-.637-1.632,2.978,2.978,0,0,0-1.948-.536h-2.37v8.45h.921V47.854h1.2a2.122,2.122,0,0,1,1.347.321,1.738,1.738,0,0,1,.452,1.194q.028.318.055.86a3.614,3.614,0,0,0,.226,1.378h1.169c-.238-.2-.386-.764-.444-1.686-.022-.361-.042-.646-.061-.85a2.1,2.1,0,0,0-.428-1.222,1.516,1.516,0,0,0-1.053-.456,2.057,2.057,0,0,0,1.185-.712A2.19,2.19,0,0,0,72.121,45.325Zm-1.43,1.325a2.276,2.276,0,0,1-1.457.382H68.088V43.986h1.328a2.035,2.035,0,0,1,1.327.351,1.4,1.4,0,0,1,.411,1.125A1.451,1.451,0,0,1,70.692,46.649Z" transform="translate(16.695 10.727)" fill="none" stroke="#fff" stroke-miterlimit="10" stroke-width="0.1"/>
      <path id="Path_693" data-name="Path 693" d="M78.541,44.035v-.878H74.349v8.449h4.225v-.888H75.282V47.607h3.045v-.855H75.282V44.035Z" transform="translate(18.481 10.727)" fill="#fff"/>
      <path id="Path_694" data-name="Path 694" d="M78.541,44.035v-.878H74.349v8.449h4.225v-.888H75.282V47.607h3.045v-.855H75.282V44.035Z" transform="translate(18.481 10.727)" fill="none" stroke="#fff" stroke-miterlimit="10" stroke-width="0.1"/>
      <path id="Path_695" data-name="Path 695" d="M88.37,48.048a1.614,1.614,0,0,0,.005-2.294,1.556,1.556,0,0,0-1.144-.474,1.584,1.584,0,0,0-1.152.471A1.555,1.555,0,0,0,85.6,46.9a1.579,1.579,0,0,0,.471,1.152,1.555,1.555,0,0,0,1.147.478,1.572,1.572,0,0,0,1.15-.481" transform="translate(21.278 11.255)" fill="#fff"/>
      <path id="Path_696" data-name="Path 696" d="M88.37,48.048a1.614,1.614,0,0,0,.005-2.294,1.556,1.556,0,0,0-1.144-.474,1.584,1.584,0,0,0-1.152.471A1.555,1.555,0,0,0,85.6,46.9a1.579,1.579,0,0,0,.471,1.152,1.555,1.555,0,0,0,1.147.478A1.572,1.572,0,0,0,88.37,48.048Z" transform="translate(21.278 11.255)" fill="none" stroke="#fff" stroke-miterlimit="10" stroke-width="0.1"/>
      <path id="Path_697" data-name="Path 697" d="M96.114,48.965c0,.029,0,.076-.006.139s0,.111,0,.141a2.763,2.763,0,0,0,.6,1.937,2.291,2.291,0,0,0,1.78.659,2.487,2.487,0,0,0,1.85-.67A2.538,2.538,0,0,0,101,49.3a2.957,2.957,0,0,0-.15-1,1.814,1.814,0,0,0-.464-.709,6.317,6.317,0,0,0-1.579-.729l-.308-.114a2.612,2.612,0,0,1-1.125-.649,1.468,1.468,0,0,1-.257-.926,1.34,1.34,0,0,1,.377-1,1.424,1.424,0,0,1,1.038-.371,1.266,1.266,0,0,1,.986.387,1.6,1.6,0,0,1,.348,1.1v.087h.867c0-.022,0-.057.005-.106s.006-.085.006-.107a2.135,2.135,0,0,0-.584-1.591A2.2,2.2,0,0,0,98.545,43a2.263,2.263,0,0,0-1.7.622,2.365,2.365,0,0,0-.608,1.727,2.656,2.656,0,0,0,.171,1,1.941,1.941,0,0,0,.524.743,5.007,5.007,0,0,0,1.239.561c.247.092.437.162.571.214a2.581,2.581,0,0,1,1.1.646,1.484,1.484,0,0,1,.245.913,1.628,1.628,0,0,1-.4,1.164,1.456,1.456,0,0,1-1.1.423,1.508,1.508,0,0,1-1.177-.439,1.882,1.882,0,0,1-.4-1.3v-.3Z" transform="translate(23.888 10.687)" fill="#fff"/>
      <path id="Path_698" data-name="Path 698" d="M96.114,48.965c0,.029,0,.076-.006.139s0,.111,0,.141a2.763,2.763,0,0,0,.6,1.937,2.291,2.291,0,0,0,1.78.659,2.487,2.487,0,0,0,1.85-.67A2.538,2.538,0,0,0,101,49.3a2.957,2.957,0,0,0-.15-1,1.814,1.814,0,0,0-.464-.709,6.317,6.317,0,0,0-1.579-.729l-.308-.114a2.612,2.612,0,0,1-1.125-.649,1.468,1.468,0,0,1-.257-.926,1.34,1.34,0,0,1,.377-1,1.424,1.424,0,0,1,1.038-.371,1.266,1.266,0,0,1,.986.387,1.6,1.6,0,0,1,.348,1.1v.087h.867c0-.022,0-.057.005-.106s.006-.085.006-.107a2.135,2.135,0,0,0-.584-1.591A2.2,2.2,0,0,0,98.545,43a2.263,2.263,0,0,0-1.7.622,2.365,2.365,0,0,0-.608,1.727,2.656,2.656,0,0,0,.171,1,1.941,1.941,0,0,0,.524.743,5.007,5.007,0,0,0,1.239.561c.247.092.437.162.571.214a2.581,2.581,0,0,1,1.1.646,1.484,1.484,0,0,1,.245.913,1.628,1.628,0,0,1-.4,1.164,1.456,1.456,0,0,1-1.1.423,1.508,1.508,0,0,1-1.177-.439,1.882,1.882,0,0,1-.4-1.3v-.3Z" transform="translate(23.888 10.687)" fill="none" stroke="#fff" stroke-miterlimit="10" stroke-width="0.1"/>
      <path id="Path_699" data-name="Path 699" d="M105.579,51.85a2.247,2.247,0,0,0,2.076-1.023,6.806,6.806,0,0,0,.631-3.4,6.791,6.791,0,0,0-.633-3.4,2.6,2.6,0,0,0-4.143.011,6.744,6.744,0,0,0-.639,3.394,6.725,6.725,0,0,0,.642,3.386,2.241,2.241,0,0,0,2.066,1.041m-1.34-7.234a1.558,1.558,0,0,1,2.684-.019,7.068,7.068,0,0,1,.381,2.826,7.111,7.111,0,0,1-.381,2.834,1.556,1.556,0,0,1-2.684-.019,7.052,7.052,0,0,1-.387-2.816,7.01,7.01,0,0,1,.387-2.807" transform="translate(25.57 10.687)" fill="#fff"/>
      <path id="Path_700" data-name="Path 700" d="M105.579,51.85a2.247,2.247,0,0,0,2.076-1.023,6.806,6.806,0,0,0,.631-3.4,6.791,6.791,0,0,0-.633-3.4,2.6,2.6,0,0,0-4.143.011,6.744,6.744,0,0,0-.639,3.394,6.725,6.725,0,0,0,.642,3.386A2.241,2.241,0,0,0,105.579,51.85Zm-1.34-7.234a1.558,1.558,0,0,1,2.684-.019,7.068,7.068,0,0,1,.381,2.826,7.111,7.111,0,0,1-.381,2.834,1.556,1.556,0,0,1-2.684-.019,7.052,7.052,0,0,1-.387-2.816A7.01,7.01,0,0,1,104.239,44.616Z" transform="translate(25.57 10.687)" fill="none" stroke="#fff" stroke-miterlimit="10" stroke-width="0.1"/>
      <path id="Path_701" data-name="Path 701" d="M110.206,43.157v8.45h4.319V50.7H111.15V43.157Z" transform="translate(27.394 10.727)" fill="#fff"/>
      <path id="Path_702" data-name="Path 702" d="M110.206,43.157v8.45h4.319V50.7H111.15V43.157Z" transform="translate(27.394 10.727)" fill="none" stroke="#fff" stroke-miterlimit="10" stroke-width="0.1"/>
      <path id="Path_703" data-name="Path 703" d="M116.269,43.157v5.514a8.65,8.65,0,0,0,.09,1.518,1.8,1.8,0,0,0,.3.733,1.974,1.974,0,0,0,.834.649,3.23,3.23,0,0,0,2.345.016,2.2,2.2,0,0,0,.854-.622,2.04,2.04,0,0,0,.406-.783,6.443,6.443,0,0,0,.121-1.512V43.157H120.3v5.685a2.658,2.658,0,0,1-.388,1.6,1.432,1.432,0,0,1-1.214.509,1.329,1.329,0,0,1-1.15-.463,2.946,2.946,0,0,1-.336-1.648V43.157Z" transform="translate(28.901 10.727)" fill="#fff"/>
      <path id="Path_704" data-name="Path 704" d="M116.269,43.157v5.514a8.65,8.65,0,0,0,.09,1.518,1.8,1.8,0,0,0,.3.733,1.974,1.974,0,0,0,.834.649,3.23,3.23,0,0,0,2.345.016,2.2,2.2,0,0,0,.854-.622,2.04,2.04,0,0,0,.406-.783,6.443,6.443,0,0,0,.121-1.512V43.157H120.3v5.685a2.658,2.658,0,0,1-.388,1.6,1.432,1.432,0,0,1-1.214.509,1.329,1.329,0,0,1-1.15-.463,2.946,2.946,0,0,1-.336-1.648V43.157Z" transform="translate(28.901 10.727)" fill="none" stroke="#fff" stroke-miterlimit="10" stroke-width="0.1"/>
      <path id="Path_705" data-name="Path 705" d="M126.018,51.607V44.025h2.025v-.868H122.9v.868h2.158v7.583Z" transform="translate(30.548 10.727)" fill="#fff"/>
      <path id="Path_706" data-name="Path 706" d="M126.018,51.607V44.025h2.025v-.868H122.9v.868h2.158v7.583Z" transform="translate(30.548 10.727)" fill="none" stroke="#fff" stroke-miterlimit="10" stroke-width="0.1"/>
      <rect id="Rectangle_788" data-name="Rectangle 788" width="0.965" height="8.45" transform="translate(161.9 53.884)" fill="#fff"/>
      <rect id="Rectangle_789" data-name="Rectangle 789" width="0.965" height="8.45" transform="translate(161.9 53.884)" fill="none" stroke="#fff" stroke-miterlimit="10" stroke-width="0.1"/>
      <path id="Path_707" data-name="Path 707" d="M136.15,51.85a2.247,2.247,0,0,0,2.076-1.023,6.806,6.806,0,0,0,.631-3.4,6.791,6.791,0,0,0-.633-3.4,2.6,2.6,0,0,0-4.143.011,6.744,6.744,0,0,0-.639,3.394,6.725,6.725,0,0,0,.642,3.386,2.241,2.241,0,0,0,2.066,1.041m-1.34-7.234a1.558,1.558,0,0,1,2.684-.019,7.068,7.068,0,0,1,.381,2.826,7.111,7.111,0,0,1-.381,2.834,1.556,1.556,0,0,1-2.684-.019,7.053,7.053,0,0,1-.387-2.816,7.011,7.011,0,0,1,.387-2.807" transform="translate(33.169 10.687)" fill="#fff"/>
      <path id="Path_708" data-name="Path 708" d="M136.15,51.85a2.247,2.247,0,0,0,2.076-1.023,6.806,6.806,0,0,0,.631-3.4,6.791,6.791,0,0,0-.633-3.4,2.6,2.6,0,0,0-4.143.011,6.744,6.744,0,0,0-.639,3.394,6.725,6.725,0,0,0,.642,3.386A2.241,2.241,0,0,0,136.15,51.85Zm-1.34-7.234a1.558,1.558,0,0,1,2.684-.019,7.068,7.068,0,0,1,.381,2.826,7.111,7.111,0,0,1-.381,2.834,1.556,1.556,0,0,1-2.684-.019,7.053,7.053,0,0,1-.387-2.816A7.011,7.011,0,0,1,134.81,44.616Z" transform="translate(33.169 10.687)" fill="none" stroke="#fff" stroke-miterlimit="10" stroke-width="0.1"/>
      <path id="Path_709" data-name="Path 709" d="M140.777,43.157v8.45h.911l-.077-7.463,2.975,7.463h1.207v-8.45h-.913l.087,7.248-2.928-7.248Z" transform="translate(34.993 10.727)" fill="#fff"/>
      <path id="Path_710" data-name="Path 710" d="M140.777,43.157v8.45h.911l-.077-7.463,2.975,7.463h1.207v-8.45h-.913l.087,7.248-2.928-7.248Z" transform="translate(34.993 10.727)" fill="none" stroke="#fff" stroke-miterlimit="10" stroke-width="0.1"/>
      <path id="Path_711" data-name="Path 711" d="M147.781,48.965c0,.029,0,.076-.005.139s-.006.111-.006.141a2.769,2.769,0,0,0,.6,1.937,2.294,2.294,0,0,0,1.782.659,2.489,2.489,0,0,0,1.85-.67,2.543,2.543,0,0,0,.664-1.87,2.956,2.956,0,0,0-.151-1,1.811,1.811,0,0,0-.463-.709,6.335,6.335,0,0,0-1.581-.729l-.307-.114a2.6,2.6,0,0,1-1.125-.649,1.468,1.468,0,0,1-.257-.926,1.335,1.335,0,0,1,.377-1A1.419,1.419,0,0,1,150.2,43.8a1.263,1.263,0,0,1,.986.387,1.591,1.591,0,0,1,.348,1.1v.087h.867a1.056,1.056,0,0,1,.006-.106c0-.05.005-.085.005-.107a2.131,2.131,0,0,0-.584-1.591A2.2,2.2,0,0,0,150.212,43a2.265,2.265,0,0,0-1.7.622,2.365,2.365,0,0,0-.608,1.727,2.681,2.681,0,0,0,.171,1,1.968,1.968,0,0,0,.524.743,5.05,5.05,0,0,0,1.24.561l.571.214a2.566,2.566,0,0,1,1.1.646,1.476,1.476,0,0,1,.245.913,1.623,1.623,0,0,1-.4,1.164,1.451,1.451,0,0,1-1.1.423,1.506,1.506,0,0,1-1.177-.439,1.882,1.882,0,0,1-.4-1.3v-.3Z" transform="translate(36.731 10.687)" fill="#fff"/>
      <path id="Path_712" data-name="Path 712" d="M147.781,48.965c0,.029,0,.076-.005.139s-.006.111-.006.141a2.769,2.769,0,0,0,.6,1.937,2.294,2.294,0,0,0,1.782.659,2.489,2.489,0,0,0,1.85-.67,2.543,2.543,0,0,0,.664-1.87,2.956,2.956,0,0,0-.151-1,1.811,1.811,0,0,0-.463-.709,6.335,6.335,0,0,0-1.581-.729l-.307-.114a2.6,2.6,0,0,1-1.125-.649,1.468,1.468,0,0,1-.257-.926,1.335,1.335,0,0,1,.377-1A1.419,1.419,0,0,1,150.2,43.8a1.263,1.263,0,0,1,.986.387,1.591,1.591,0,0,1,.348,1.1v.087h.867a1.056,1.056,0,0,1,.006-.106c0-.05.005-.085.005-.107a2.131,2.131,0,0,0-.584-1.591A2.2,2.2,0,0,0,150.212,43a2.265,2.265,0,0,0-1.7.622,2.365,2.365,0,0,0-.608,1.727,2.681,2.681,0,0,0,.171,1,1.968,1.968,0,0,0,.524.743,5.05,5.05,0,0,0,1.24.561l.571.214a2.566,2.566,0,0,1,1.1.646,1.476,1.476,0,0,1,.245.913,1.623,1.623,0,0,1-.4,1.164,1.451,1.451,0,0,1-1.1.423,1.506,1.506,0,0,1-1.177-.439,1.882,1.882,0,0,1-.4-1.3v-.3Z" transform="translate(36.731 10.687)" fill="none" stroke="#fff" stroke-miterlimit="10" stroke-width="0.1"/>
    </g>
  </g>
</svg>
